HIERARCHY
ROOT hip
{
  OFFSET 0 0 0
  CHANNELS 6 Xposition Yposition Zposition Zrotation Yrotation Xrotation
  JOINT abdomen
  {
    OFFSET 0 20.6881 -0.73152
    CHANNELS 3 Zrotation Xrotation Yrotation
    JOINT chest
    {
      OFFSET 0 11.7043 -0.48768
      CHANNELS 3 Zrotation Xrotation Yrotation
      JOINT neck
      {
        OFFSET 0 22.1894 -2.19456
        CHANNELS 3 Zrotation Xrotation Yrotation
        JOINT head
        {
          OFFSET -0.24384 7.07133 1.2192
          CHANNELS 3 Zrotation Xrotation Yrotation
          JOINT leftEye
          {
            OFFSET 4.14528 8.04674 8.04672
            CHANNELS 3 Zrotation Xrotation Yrotation
            End Site
            {
              OFFSET 1 0 0
            }
          }
          JOINT rightEye
          {
            OFFSET -3.6576 8.04674 8.04672
            CHANNELS 3 Zrotation Xrotation Yrotation
            End Site
            {
              OFFSET 1 0 0
            }
          }
        }
      }
      JOINT rCollar
      {
        OFFSET -2.68224 19.2634 -4.8768
        CHANNELS 3 Zrotation Xrotation Yrotation
        JOINT rShldr
        {
          OFFSET -8.77824 -1.95073 1.46304
          CHANNELS 3 Zrotation Xrotation Yrotation
          JOINT rForeArm
          {
            OFFSET -28.1742 -1.7115 0.48768
            CHANNELS 3 Zrotation Xrotation Yrotation
            JOINT rHand
            {
              OFFSET -22.5879 0.773209 7.07136
              CHANNELS 3 Zrotation Xrotation Yrotation
              JOINT rThumb1
              {
                OFFSET -1.2192 -0.487915 3.41376
                CHANNELS 3 Zrotation Xrotation Yrotation
                JOINT rThumb2
                {
                  OFFSET -3.37035 -0.52449 3.41376
                  CHANNELS 3 Zrotation Xrotation Yrotation
                  End Site
                  {
                    OFFSET -1.78271 -1.18214 1.43049
                  }
                }
              }
              JOINT rIndex1
              {
                OFFSET -7.75947 0.938293 5.60832
                CHANNELS 3 Zrotation Xrotation Yrotation
                JOINT rIndex2
                {
                  OFFSET -2.54057 -0.884171 1.56538
                  CHANNELS 3 Zrotation Xrotation Yrotation
                  End Site
                  {
                    OFFSET -1.62519 -0.234802 1.16502
                  }
                }
              }
              JOINT rMid1
              {
                OFFSET -8.24714 1.18213 3.41376
                CHANNELS 3 Zrotation Xrotation Yrotation
                JOINT rMid2
                {
                  OFFSET -3.10165 -0.590103 1.0647
                  CHANNELS 3 Zrotation Xrotation Yrotation
                  End Site
                  {
                    OFFSET -2.48547 -0.328903 0.83742
                  }
                }
              }
              JOINT rRing1
              {
                OFFSET -8.82822 0.546677 1.51678
                CHANNELS 3 Zrotation Xrotation Yrotation
                JOINT rRing2
                {
                  OFFSET -2.60934 -0.819778 -0.0198488
                  CHANNELS 3 Zrotation Xrotation Yrotation
                  End Site
                  {
                    OFFSET -2.33842 -0.294052 0.168128
                  }
                }
              }
              JOINT rPinky1
              {
                OFFSET -8.27202 -0.0477905 -0.4584
                CHANNELS 3 Zrotation Xrotation Yrotation
                JOINT rPinky2
                {
                  OFFSET -1.82734 -0.647385 -0.700984
                  CHANNELS 3 Zrotation Xrotation Yrotation
                  End Site
                  {
                    OFFSET -1.69225 -0.51767 -0.607171
                  }
                }
              }
            }
          }
        }
      }
      JOINT lCollar
      {
        OFFSET 2.68224 19.2634 -4.8768
        CHANNELS 3 Zrotation Xrotation Yrotation
        JOINT lShldr
        {
          OFFSET 8.77824 -1.95073 1.46304
          CHANNELS 3 Zrotation Xrotation Yrotation
          JOINT lForeArm
          {
            OFFSET 28.1742 -1.7115 0.48768
            CHANNELS 3 Zrotation Xrotation Yrotation
            JOINT lHand
            {
              OFFSET 22.5879 0.773209 7.07136
              CHANNELS 3 Zrotation Xrotation Yrotation
              JOINT lThumb1
              {
                OFFSET 1.2192 -0.487915 3.41376
                CHANNELS 3 Zrotation Xrotation Yrotation
                JOINT lThumb2
                {
                  OFFSET 3.37035 -0.52449 3.41376
                  CHANNELS 3 Zrotation Xrotation Yrotation
                  End Site
                  {
                    OFFSET 1.78271 -1.18214 1.43049
                  }
                }
              }
              JOINT lIndex1
              {
                OFFSET 7.75947 0.938293 5.60832
                CHANNELS 3 Zrotation Xrotation Yrotation
                JOINT lIndex2
                {
                  OFFSET 2.54057 -0.884171 1.56538
                  CHANNELS 3 Zrotation Xrotation Yrotation
                  End Site
                  {
                    OFFSET 1.62519 -0.234802 1.16502
                  }
                }
              }
              JOINT lMid1
              {
                OFFSET 8.24714 1.18213 3.41376
                CHANNELS 3 Zrotation Xrotation Yrotation
                JOINT lMid2
                {
                  OFFSET 3.10165 -0.590103 1.0647
                  CHANNELS 3 Zrotation Xrotation Yrotation
                  End Site
                  {
                    OFFSET 2.48547 -0.328903 0.83742
                  }
                }
              }
              JOINT lRing1
              {
                OFFSET 8.82822 0.546677 1.51678
                CHANNELS 3 Zrotation Xrotation Yrotation
                JOINT lRing2
                {
                  OFFSET 2.60934 -0.819778 -0.0198488
                  CHANNELS 3 Zrotation Xrotation Yrotation
                  End Site
                  {
                    OFFSET 2.33842 -0.294052 0.168128
                  }
                }
              }
              JOINT lPinky1
              {
                OFFSET 8.27202 -0.0477905 -0.4584
                CHANNELS 3 Zrotation Xrotation Yrotation
                JOINT lPinky2
                {
                  OFFSET 1.82734 -0.647385 -0.700984
                  CHANNELS 3 Zrotation Xrotation Yrotation
                  End Site
                  {
                    OFFSET 1.69225 -0.51767 -0.607171
                  }
                }
              }
            }
          }
        }
      }
    }
  }
  JOINT rButtock
  {
    OFFSET -8.77824 4.35084 1.2192
    CHANNELS 3 Zrotation Xrotation Yrotation
    JOINT rThigh
    {
      OFFSET 0 -1.70687 -2.19456
      CHANNELS 3 Zrotation Xrotation Yrotation
      JOINT rShin
      {
        OFFSET 0 -36.8199 0.73152
        CHANNELS 3 Zrotation Xrotation Yrotation
        JOINT rFoot
        {
          OFFSET 0.73152 -45.1104 -5.12064
          CHANNELS 3 Zrotation Xrotation Yrotation
          End Site
          {
            OFFSET -1.1221 -3.69964 12.103
          }
        }
      }
    }
  }
  JOINT lButtock
  {
    OFFSET 8.77824 4.35084 1.2192
    CHANNELS 3 Zrotation Xrotation Yrotation
    JOINT lThigh
    {
      OFFSET 0 -1.70687 -2.19456
      CHANNELS 3 Zrotation Xrotation Yrotation
      JOINT lShin
      {
        OFFSET 0 -36.8199 0.73152
        CHANNELS 3 Zrotation Xrotation Yrotation
        JOINT lFoot
        {
          OFFSET -0.73152 -45.1104 -5.12064
          CHANNELS 3 Zrotation Xrotation Yrotation
          End Site
          {
            OFFSET 1.1221 -3.69964 12.103
          }
        }
      }
    }
  }
}
MOTION
Frames:	4
Frame Time:	0.03333
0.0 0.0 0.0 0.0 0.0 0.0 0.0 0.0 0.0 0.0 0.0 0.0 0.0 0.0 0.0 0.0 0.0 0.0 0.0 0.0 0.0 0.0 0.0 0.0 0.0 0.0 0.0 0.0 0.0 0.0 0.0 0.0 0.0 0.0 0.0 0.0 0.0 0.0 0.0 0.0 0.0 0.0 0.0 0.0 0.0 0.0 0.0 0.0 0.0 0.0 0.0 0.0 0.0 0.0 0.0 0.0 0.0 0.0 0.0 0.0 0.0 0.0 0.0 0.0 0.0 0.0 0.0 0.0 0.0 0.0 0.0 0.0 0.0 0.0 0.0 0.0 0.0 0.0 0.0 0.0 0.0 0.0 0.0 0.0 0.0 0.0 0.0 0.0 0.0 0.0 0.0 0.0 0.0 0.0 0.0 0.0 0.0 0.0 0.0 0.0 0.0 0.0 0.0 0.0 0.0 0.0 0.0 0.0 0.0 0.0 0.0 0.0 0.0 0.0 0.0 0.0 0.0 0.0 0.0 0.0 0.0 0.0 0.0 0.0 0.0 0.0 0.0 0.0 0.0 0.0 0.0 0.0
-0.44400000000000006 49.9133 0.7262000000000001 -177.699612 -71.287386 177.093491 1.6303 -1.670123 -115.409334 -8.547743 -10.647216 148.552726 -6.08601 -9.97373 -53.006722 42.440735 -25.529242 60.082797 36.35163 -25.599203 -69.364749 -116.549399 25.01804 39.482789 113.657782 -17.439783 -5.329933 134.845383 -47.963575 147.723905 169.36817 60.672546 -143.019986 173.036242 -51.834409 -148.039076 13.613178 25.869572 -52.321862 -42.222422 12.931792 -57.277321 -164.389334 74.688788 -100.867248 170.841964 36.806056 -75.314889 133.971846 58.711573 152.177328 27.50136 22.123124 60.20615 144.651777 -1.334106 -160.323567 65.135915 -67.220067 128.462477 64.495459 8.513379 -89.389737 -88.854258 -61.117644 19.702386 -40.599383 -80.215877 52.586356 155.449309 36.097289 -172.97748 93.268339 -80.124677 -74.846307 -1.500405 -24.075831 94.228647 -32.910252 -27.513461 -65.538759 -66.203327 1.548186 156.720141 9.865224 -17.570572 102.728472 108.596663 44.021687 140.001249 21.679118 13.662262 121.037115 -175.673797 -29.774477 -34.361624 91.611978 6.455044 90.479599 168.660161 -61.567758 161.509025 7.064238 10.591326 50.91249 109.34859 -46.224402 60.903605 56.364639 -27.142428 76.682845 5.732538 57.802527 173.234608 1.932162 -8.129521 37.841449 -68.523103 -26.890291 111.258817 -51.597144 26.890372 -107.897766 0.804725 53.762667 179.002329 1.887067 4.610493 144.118129 94.6801 73.205071 -121.919027
-0.0206 68.2861 0.31779999999999997 -178.470017 25.707871 -177.677898 2.969787 3.510662 -0.058396 -3.205552 6.604215 4.240273 3.515169 -14.991507 52.120761 -25.851631 -10.04935 -69.035954 14.058079 2.497441 20.05118 11.340566 1.002018 10.066176 -122.794869 -50.680169 158.563045 169.149748 48.257214 -172.479762 -100.644727 -17.099452 78.605814 100.190295 -30.646789 69.010829 -27.886979 -13.85108 13.338021 143.671156 24.880913 -132.424023 -67.647477 52.258024 19.88474 -132.069972 -61.093221 99.264948 -48.815908 64.774074 -36.797042 31.473271 -14.06438 43.907089 54.292035 86.853386 -54.114218 24.595022 -25.121593 -8.895019 92.587324 15.54365 -76.900657 -99.48348 -58.989207 -17.242613 117.39699 -5.217868 -166.769288 -161.98447 -13.247644 174.6268 -158.695395 15.095195 -72.124128 -167.854157 17.166522 -154.772189 165.808027 19.017962 -35.354077 -144.649861 -3.736409 1.79915 25.441741 6.322685 -19.923976 -162.832705 -21.596678 123.201635 -6.010936 49.299321 86.407717 -80.511745 -59.379362 140.319855 -50.107127 50.219342 39.168586 -171.142907 31.013485 134.689019 0.245546 24.861528 62.912751 115.633484 38.960769 160.784774 -5.756162 -37.206603 2.42577 8.140359 26.30716 162.112231 -5.74129 -17.505819 -72.901379 -83.572499 -8.083111 117.096291 60.829972 1.720855 82.800068 -31.407269 53.22279 134.59458 3.488571 -20.12622 28.330872 160.298518 60.125067 -166.535064
0.2284 68.2104 0.8203 -179.079963 25.901545 -173.912607 -3.094482 5.405958 -0.0 3.068609 -0.305834 8.175089 7.571928 2.227281 84.290728 -32.717919 9.687995 -89.727387 -39.342077 -5.881771 16.355834 95.456455 1.42485 -1.567424 -128.586395 20.926964 142.219378 114.381451 -47.944627 139.715517 -4.937379 -40.232713 87.651703 17.448402 17.158772 -5.198788 7.612296 -28.67959 41.217057 -44.185164 4.982497 -109.991496 -29.409578 12.212096 -35.230349 -160.235646 -70.078975 72.219208 -14.745451 -42.198857 -20.051933 179.388628 -28.227235 124.25396 -107.068451 -80.948343 -95.067213 -106.390067 26.402195 21.450269 12.024126 59.087744 -32.098958 -161.359175 -36.405999 174.501299 -6.060853 36.247803 -9.33396 101.92948 5.083249 -124.217799 -23.816979 13.742267 108.239171 -165.440584 9.258299 -146.754922 42.12199 -77.311906 34.259141 52.597041 -9.003781 -173.599022 82.67241 13.85612 -75.1347 57.802236 -56.520599 134.671914 -69.899969 -59.398913 -131.969575 26.457787 -2.904168 96.66168 -2.190796 -1.44604 -0.44101 43.264467 -8.693347 26.519806 -83.194404 72.407499 77.6723 88.836077 5.529514 130.494519 58.832735 75.306786 113.59793 -154.606309 72.129721 -26.508344 6.595349 42.809144 158.113589 -88.279983 21.286351 149.153236 -31.53567 12.896056 -60.396345 53.326955 8.177731 -92.767699 -6.457025 -28.709663 110.620073 61.163046 57.751798 -11.089765
